<svg preserveAspectRatio="none" width="100%" height="100%" overflow="visible" style="display: block;" viewBox="0 0 24 24" fill="none" xmlns="http://www.w3.org/2000/svg">
<g id="box">
<path id="Vector" opacity="0" d="M24 0H0V24H24V0Z" fill="#D97706"/>
<path id="Vector_2" d="M20.1 6.94C20.1 7.48 19.81 7.97 19.35 8.22L17.61 9.16L16.13 9.95L13.06 11.61C12.73 11.79 12.37 11.88 12 11.88C11.63 11.88 11.27 11.79 10.94 11.61L4.65 8.22C4.19 7.97 3.9 7.48 3.9 6.94C3.9 6.4 4.19 5.91 4.65 5.66L6.62 4.6L8.19 3.75L10.94 2.27C11.6 1.91 12.4 1.91 13.06 2.27L19.35 5.66C19.81 5.91 20.1 6.4 20.1 6.94Z" fill="#D97706"/>
<path id="Vector_3" d="M9.9 12.79L4.05 9.87C3.6 9.64 3.08 9.67 2.65 9.93C2.22 10.19 1.97 10.65 1.97 11.15V16.68C1.97 17.64 2.5 18.5 3.36 18.93L9.21 21.85C9.41 21.95 9.63 22 9.85 22C10.11 22 10.37 21.93 10.6 21.78C11.03 21.52 11.28 21.06 11.28 20.56V15.03C11.29 14.08 10.76 13.22 9.9 12.79Z" fill="#D97706"/>
<path id="Vector_4" d="M22.03 11.15V16.68C22.03 17.63 21.5 18.49 20.64 18.92L14.79 21.85C14.59 21.95 14.37 22 14.15 22C13.89 22 13.63 21.93 13.39 21.78C12.97 21.52 12.71 21.06 12.71 20.56V15.04C12.71 14.08 13.24 13.22 14.1 12.79L16.25 11.72L17.75 10.97L19.95 9.87C20.4 9.64 20.92 9.66 21.35 9.93C21.77 10.19 22.03 10.65 22.03 11.15Z" fill="#D97706"/>
<path id="Vector_5" d="M17.61 9.16L16.13 9.95L6.62 4.6L8.19 3.75L17.37 8.93C17.47 8.99 17.55 9.07 17.61 9.16Z" fill="#D97706"/>
<path id="Vector_6" d="M17.75 10.97V13.24C17.75 13.65 17.41 13.99 17 13.99C16.59 13.99 16.25 13.65 16.25 13.24V11.72L17.75 10.97Z" fill="#D97706"/>
</g>
</svg>
