<svg preserveAspectRatio="none" width="100%" height="100%" overflow="visible" style="display: block;" viewBox="0 0 24 24" fill="none" xmlns="http://www.w3.org/2000/svg">
<g id="vuesax/bold/routing">
<path id="Vector" d="M8.88 4.6C8.08 1.14 2.87 1.13 2.07 4.6C1.6 6.63 2.89 8.35 4.01 9.42C4.83 10.19 6.12 10.19 6.94 9.42C8.06 8.35 9.34 6.63 8.88 4.6ZM5.51 6.2C4.96 6.2 4.51 5.75 4.51 5.2C4.51 4.65 4.95 4.2 5.5 4.2H5.51C6.07 4.2 6.51 4.65 6.51 5.2C6.51 5.75 6.07 6.2 5.51 6.2Z" fill="#E11D48"/>
<path id="Vector_2" d="M21.91 16.6C21.11 13.14 15.88 13.13 15.07 16.6C14.6 18.63 15.89 20.35 17.02 21.42C17.84 22.19 19.14 22.19 19.96 21.42C21.09 20.35 22.38 18.63 21.91 16.6ZM18.53 18.2C17.98 18.2 17.53 17.75 17.53 17.2C17.53 16.65 17.97 16.2 18.52 16.2H18.53C19.08 16.2 19.53 16.65 19.53 17.2C19.53 17.75 19.08 18.2 18.53 18.2Z" fill="#E11D48"/>
<path id="Vector_3" d="M11.9999 19.75H9.31994C8.15994 19.75 7.14994 19.05 6.74994 17.97C6.33994 16.89 6.63994 15.7 7.50994 14.93L15.4999 7.94C15.9799 7.52 15.9899 6.95 15.8499 6.56C15.6999 6.17 15.3199 5.75 14.6799 5.75H11.9999C11.5899 5.75 11.2499 5.41 11.2499 5C11.2499 4.59 11.5899 4.25 11.9999 4.25H14.6799C15.8399 4.25 16.8499 4.95 17.2499 6.03C17.6599 7.11 17.3599 8.3 16.4899 9.07L8.49994 16.06C8.01994 16.48 8.00994 17.05 8.14994 17.44C8.29994 17.83 8.67994 18.25 9.31994 18.25H11.9999C12.4099 18.25 12.7499 18.59 12.7499 19C12.7499 19.41 12.4099 19.75 11.9999 19.75Z" fill="#E11D48"/>
<path id="Vector_4" opacity="0" d="M24 0H0V24H24V0Z" fill="#E11D48"/>
<path id="Vector_5" opacity="0" d="M0 24L24 24L24 0L0 0L0 24Z" fill="#E11D48"/>
</g>
</svg>
