<svg width="24" height="24" viewBox="0 0 24 24" fill="none" xmlns="http://www.w3.org/2000/svg">
<g id="vuesax/bold/directbox-send">
<g id="directbox-send_2">
<path id="Vector" d="M16.6497 12.05C17.3986 12.05 18.0011 12.1249 18.4944 12.2542H18.4954C19.4672 12.5155 19.8682 12.9889 20.0745 13.5159C20.3109 14.1199 20.3196 14.8576 20.3196 15.72V16.6497C20.3196 18.3064 19.9004 19.4214 19.1956 20.1262C18.4907 20.8309 17.3765 21.2502 15.72 21.2502H8.27954C5.72003 21.2502 4.69552 20.5732 4.22681 19.8557C3.70299 19.0537 3.67993 17.9622 3.67993 16.6497V15.72C3.67993 14.8575 3.68956 14.1199 3.92603 13.5159C4.11947 13.0218 4.4836 12.5752 5.32935 12.3059L5.50513 12.2542C5.99843 12.1248 6.60077 12.0501 7.34985 12.05C7.84372 12.05 8.12571 12.1099 8.32642 12.1877C8.53214 12.2676 8.70431 12.3846 8.98462 12.5959L8.99927 12.6106L9.93579 13.5959C11.0366 14.7732 12.9722 14.7523 14.0627 13.6077L14.0667 13.6038L15.0002 12.6106C15.0051 12.6057 15.0089 12.6019 15.012 12.5989C15.2944 12.3858 15.4674 12.2679 15.6741 12.1877C15.8747 12.11 16.1563 12.0501 16.6497 12.05ZM9.67017 16.2502C8.91915 16.2502 8.31085 16.8236 8.23755 17.552L8.22974 17.7004L8.23755 17.8479C8.31076 18.5764 8.91909 19.1497 9.67017 19.1497H14.3303C15.1312 19.1494 15.7696 18.4973 15.7698 17.7004C15.7698 16.9034 15.1314 16.2505 14.3303 16.2502H9.67017Z" fill="white" stroke="white" stroke-width="1.5"/>
<g id="Vector_2">
<mask id="path-6-inside-1_2113_4800" fill="white">
<path d="M12.6699 4.3L13.3199 4.95C13.5799 5.21 14.0099 5.21 14.2699 4.95C14.5299 4.69 14.5299 4.26 14.2699 4L12.4699 2.2C12.4099 2.14 12.3299 2.09 12.2499 2.05C12.1699 2.02 12.0899 2 11.9999 2C11.9099 2 11.8299 2.02 11.7399 2.05C11.6599 2.08 11.5999 2.13 11.5399 2.18C11.5299 2.19 11.5299 2.19 11.5199 2.19L9.7199 4C9.4599 4.26 9.4599 4.69 9.7199 4.95C9.9799 5.21 10.4099 5.21 10.6699 4.95L11.3199 4.3V6H12.6699V4.3Z"/>
</mask>
<path d="M12.6699 4.3L13.3199 4.95C13.5799 5.21 14.0099 5.21 14.2699 4.95C14.5299 4.69 14.5299 4.26 14.2699 4L12.4699 2.2C12.4099 2.14 12.3299 2.09 12.2499 2.05C12.1699 2.02 12.0899 2 11.9999 2C11.9099 2 11.8299 2.02 11.7399 2.05C11.6599 2.08 11.5999 2.13 11.5399 2.18C11.5299 2.19 11.5299 2.19 11.5199 2.19L9.7199 4C9.4599 4.26 9.4599 4.69 9.7199 4.95C9.9799 5.21 10.4099 5.21 10.6699 4.95L11.3199 4.3V6H12.6699V4.3Z" fill="white"/>
<path d="M12.6699 4.3L13.7306 3.23934L11.1699 0.67868V4.3H12.6699ZM14.2699 4L15.3306 2.93934L15.3306 2.93934L14.2699 4ZM12.4699 2.2L11.4092 3.26066L11.4092 3.26066L12.4699 2.2ZM12.2499 2.05L12.9207 0.708359L12.8503 0.67315L12.7766 0.645506L12.2499 2.05ZM11.7399 2.05L11.2656 0.626975L11.2392 0.635756L11.2132 0.645506L11.7399 2.05ZM11.5399 2.18L10.5796 1.02767L10.5274 1.07123L10.4792 1.11934L11.5399 2.18ZM11.5199 2.19V0.69H10.8961L10.4563 1.13228L11.5199 2.19ZM9.7199 4L10.7806 5.06066L10.7835 5.05772L9.7199 4ZM11.3199 4.3H12.8199V0.67868L10.2592 3.23934L11.3199 4.3ZM11.3199 6H9.8199V7.5H11.3199V6ZM12.6699 6V7.5H14.1699V6H12.6699ZM12.6699 4.3L11.6092 5.36066L12.2592 6.01066L13.3199 4.95L14.3806 3.88934L13.7306 3.23934L12.6699 4.3ZM13.3199 4.95L12.2592 6.01066C13.105 6.85645 14.4848 6.85645 15.3306 6.01066L14.2699 4.95L13.2092 3.88934C13.535 3.56355 14.0548 3.56355 14.3806 3.88934L13.3199 4.95ZM14.2699 4.95L15.3306 6.01066C16.1763 5.16487 16.1763 3.78513 15.3306 2.93934L14.2699 4L13.2092 5.06066C12.8835 4.73487 12.8835 4.21513 13.2092 3.88934L14.2699 4.95ZM14.2699 4L15.3306 2.93934L13.5306 1.13934L12.4699 2.2L11.4092 3.26066L13.2092 5.06066L14.2699 4ZM12.4699 2.2L13.5306 1.13934C13.3101 0.918913 13.0713 0.783652 12.9207 0.708359L12.2499 2.05L11.5791 3.39164C11.5761 3.39013 11.5601 3.3821 11.5354 3.36558C11.5119 3.34992 11.4651 3.31648 11.4092 3.26066L12.4699 2.2ZM12.2499 2.05L12.7766 0.645506C12.5892 0.575228 12.3251 0.5 11.9999 0.5V2V3.5C11.8547 3.5 11.7506 3.46477 11.7232 3.45449L12.2499 2.05ZM11.9999 2V0.5C11.6744 0.5 11.4169 0.576513 11.2656 0.626975L11.7399 2.05L12.2142 3.47302C12.2429 3.46349 12.1454 3.5 11.9999 3.5V2ZM11.7399 2.05L11.2132 0.645506C10.8608 0.77766 10.6178 0.995849 10.5796 1.02767L11.5399 2.18L12.5002 3.33233C12.5173 3.31805 12.5194 3.31639 12.5193 3.31645C12.5177 3.31776 12.5056 3.3274 12.4862 3.34079C12.4453 3.36913 12.3704 3.41555 12.2666 3.45449L11.7399 2.05ZM11.5399 2.18L10.4792 1.11934C10.4654 1.13321 10.4959 1.10203 10.5305 1.07085C10.5683 1.0368 10.6837 0.934809 10.8591 0.847122C11.0601 0.746607 11.2457 0.710373 11.3766 0.697288C11.4663 0.688318 11.5502 0.69 11.5199 0.69V2.19V3.69C11.5201 3.69 11.5212 3.69 11.5224 3.69C11.5237 3.69 11.5258 3.68999 11.5283 3.68998C11.5331 3.68996 11.542 3.6899 11.5532 3.68968C11.5732 3.68928 11.6183 3.68808 11.6751 3.6824C11.8091 3.669 11.9972 3.63214 12.2007 3.53038C12.3786 3.44144 12.4965 3.33758 12.5374 3.30071C12.561 3.27948 12.5791 3.26189 12.5865 3.25461C12.5909 3.25033 12.5944 3.24679 12.5964 3.24477C12.5984 3.24283 12.6002 3.24101 12.6006 3.24066L11.5399 2.18ZM11.5199 2.19L10.4563 1.13228L8.65631 2.94228L9.7199 4L10.7835 5.05772L12.5835 3.24772L11.5199 2.19ZM9.7199 4L8.65924 2.93934C7.81346 3.78513 7.81346 5.16487 8.65924 6.01066L9.7199 4.95L10.7806 3.88934C11.1063 4.21513 11.1063 4.73487 10.7806 5.06066L9.7199 4ZM9.7199 4.95L8.65924 6.01066C9.50503 6.85645 10.8848 6.85645 11.7306 6.01066L10.6699 4.95L9.60924 3.88934C9.93503 3.56355 10.4548 3.56355 10.7806 3.88934L9.7199 4.95ZM10.6699 4.95L11.7306 6.01066L12.3806 5.36066L11.3199 4.3L10.2592 3.23934L9.60924 3.88934L10.6699 4.95ZM11.3199 4.3H9.8199V6H11.3199H12.8199V4.3H11.3199ZM11.3199 6V7.5H12.6699V6V4.5H11.3199V6ZM12.6699 6H14.1699V4.3H12.6699H11.1699V6H12.6699Z" fill="white" mask="url(#path-6-inside-1_2113_4800)"/>
</g>
<path id="Vector_3" d="M19.21 10.12C19.17 10.1 19.12 10.09 19.08 10.08H19.07C18.36 9.89 17.57 9.8 16.65 9.8C15.11 9.8 14.38 10.25 13.72 10.75C13.58 10.85 13.48 10.95 13.38 11.05L12.43 12.06C12.33 12.16 12.17 12.22 12 12.22C11.94 12.22 11.72 12.21 11.57 12.05L10.59 11.02C10.49 10.91 10.37 10.82 10.34 10.8C9.62004 10.25 8.89004 9.8 7.35004 9.8C6.43004 9.8 5.64004 9.89 4.92004 10.08C4.88004 10.09 4.83004 10.1 4.79004 10.12C4.80004 8.13 5.00004 6 9.21004 6H11.33V9.08C11.33 9.45 11.63 9.75 12 9.75C12.37 9.75 12.67 9.45 12.67 9.08V6H14.79C19 6 19.2 8.13 19.21 10.12Z" fill="white"/>
</g>
</g>
</svg>
