<svg width="24" height="24" viewBox="0 0 24 24" fill="none" xmlns="http://www.w3.org/2000/svg">
<g id="vuesax/bold/truck">
<g id="truck_2">
<path id="Vector" d="M5.69043 2.75H13.0703C13.1812 2.75015 13.25 2.82954 13.25 2.91992V11.2305C13.2497 11.8359 12.7558 12.3299 12.1504 12.3301H3C2.86424 12.3301 2.75004 12.2158 2.75 12.0801V5.69043C2.75 4.06464 4.06464 2.75 5.69043 2.75Z" fill="white" stroke="white" stroke-width="1.5"/>
<path id="Vector_2" d="M21.5 15.5C21.78 15.5 22 15.72 22 16V17C22 18.66 20.66 20 19 20C19 18.35 17.65 17 16 17C14.35 17 13 18.35 13 20H11C11 18.35 9.65 17 8 17C6.35 17 5 18.35 5 20C3.34 20 2 18.66 2 17V15C2 14.45 2.45 14 3 14H12.5C13.88 14 15 12.88 15 11.5V6C15 5.45 15.45 5 16 5H16.84C17.56 5 18.22 5.39 18.58 6.01L19.22 7.13C19.31 7.29 19.19 7.5 19 7.5C17.62 7.5 16.5 8.62 16.5 10V13C16.5 14.38 17.62 15.5 19 15.5H21.5Z" fill="white"/>
<path id="Vector_3" d="M8 22C9.10457 22 10 21.1046 10 20C10 18.8954 9.10457 18 8 18C6.89543 18 6 18.8954 6 20C6 21.1046 6.89543 22 8 22Z" fill="white"/>
<path id="Vector_4" d="M16 22C17.1046 22 18 21.1046 18 20C18 18.8954 17.1046 18 16 18C14.8954 18 14 18.8954 14 20C14 21.1046 14.8954 22 16 22Z" fill="white"/>
<path id="Vector_5" d="M22 12.53V14H19C18.45 14 18 13.55 18 13V10C18 9.45 18.45 9 19 9H20.29L21.74 11.54C21.91 11.84 22 12.18 22 12.53Z" fill="white"/>
</g>
</g>
</svg>
