<svg preserveAspectRatio="none" width="100%" height="100%" overflow="visible" style="display: block;" viewBox="0 0 64 18" fill="none" xmlns="http://www.w3.org/2000/svg">
<g id="Click_logo" clip-path="url(#clip0_0_190)">
<path id="Vector" fill-rule="evenodd" clip-rule="evenodd" d="M16.8028 9.06709C16.8028 12.3055 11.6329 17.4817 8.39825 17.4817C5.1636 17.4817 -0.00634766 12.3055 -0.00634766 9.06709C-0.00634766 5.82865 5.1636 0.652344 8.39825 0.652344C11.6329 0.652344 16.8028 5.82865 16.8028 9.06709ZM11.76 9.06709C11.76 10.3625 9.69199 12.4329 8.39825 12.4329C7.10434 12.4329 5.03639 10.3625 5.03639 9.06709C5.03639 7.77174 7.10443 5.70119 8.39825 5.70119C9.69199 5.70119 11.76 7.77174 11.76 9.06709Z" fill="#64748B"/>
<path id="Vector_2" d="M27.0839 16C29.8289 16 31.5492 14.3756 32.0712 12.2399H29.0556C28.6884 12.97 28.1084 13.5176 27.0839 13.5176C25.8467 13.5176 24.9383 12.678 24.9383 11.236C24.9383 9.79404 25.8467 8.95431 27.0839 8.95431C28.1084 8.95431 28.6884 9.50192 29.0556 10.2321H32.0712C31.5492 8.09648 29.8289 6.47194 27.0839 6.47194C24.1456 6.47194 22 8.58935 22 11.236C22 13.8827 24.1456 16 27.0839 16ZM33.1005 15.7993H36.0195V2.1095H33.1005V15.7993ZM39.2138 5.4315C40.2384 5.4315 41.0502 4.66488 41.0502 3.71571C41.0502 2.76661 40.2384 2 39.2138 2C38.2281 2 37.3967 2.76661 37.3967 3.71571C37.3967 4.66488 38.2281 5.4315 39.2138 5.4315ZM37.7641 15.7993H40.683V6.67278H37.7641V15.7993ZM46.9318 16C49.6765 16 51.3968 14.3756 51.919 12.2399H48.9034C48.5359 12.97 47.9562 13.5176 46.9318 13.5176C45.6944 13.5176 44.7861 12.678 44.7861 11.236C44.7861 9.79404 45.6944 8.95431 46.9318 8.95431C47.9562 8.95431 48.5359 9.50192 48.9034 10.2321H51.919C51.3968 8.09648 49.6765 6.47194 46.9318 6.47194C43.9935 6.47194 41.8478 8.58935 41.8478 11.236C41.8478 13.8827 43.9935 16 46.9318 16ZM59.4627 15.7993H63L58.5928 10.798L62.1496 6.67278H58.6892L55.8671 9.94004V2.1095H52.9483V15.7993H55.8671V11.7288L59.4627 15.7993Z" fill="#0B0B0B"/>
</g>
<defs>
<clipPath id="clip0_0_190">
<rect width="64" height="18" fill="white"/>
</clipPath>
</defs>
</svg>
