<svg preserveAspectRatio="none" width="100%" height="100%" overflow="visible" style="display: block;" viewBox="0 0 18.1683 18.0833" fill="none" xmlns="http://www.w3.org/2000/svg">
<g id="headphone">
<path id="Vector" d="M3.635 14.45V12.0167C3.635 11.2083 4.26834 10.4833 5.16834 10.4833C5.97667 10.4833 6.70167 11.1167 6.70167 12.0167V14.3583C6.70167 15.9833 5.35167 17.3333 3.72667 17.3333C2.10167 17.3333 0.75167 15.975 0.75167 14.3583V9.225C0.660003 4.54167 4.36 0.75 9.04334 0.75C13.7267 0.75 17.4183 4.54167 17.4183 9.13333V14.2667C17.4183 15.8917 16.0683 17.2417 14.4433 17.2417C12.8183 17.2417 11.4683 15.8917 11.4683 14.2667V11.925C11.4683 11.1167 12.1017 10.3917 13.0017 10.3917C13.81 10.3917 14.535 11.025 14.535 11.925V14.45" stroke="#0F172A" stroke-width="1.5" stroke-linecap="round" stroke-linejoin="round"/>
</g>
</svg>
