<svg width="20" height="20" viewBox="0 0 20 20" fill="none" xmlns="http://www.w3.org/2000/svg">
<path fill-rule="evenodd" clip-rule="evenodd" d="M5.8335 2.46747C5.8335 2.16345 5.58704 1.91699 5.28302 1.91699C4.979 1.91699 4.73254 2.16345 4.73254 2.46747V17.1469C4.73254 17.4509 4.979 17.6974 5.28302 17.6974C5.58704 17.6974 5.8335 17.4509 5.8335 17.1469V11.165V3.82532V2.46747Z" fill="#3761E9"/>
<path fill-rule="evenodd" clip-rule="evenodd" d="M7.74107 17.917C7.84288 17.917 7.92542 17.7198 7.92542 17.4766C7.92542 17.2334 7.84288 17.0362 7.74107 17.0362L2.82517 17.0362C2.72336 17.0362 2.64082 17.2334 2.64082 17.4766C2.64082 17.7198 2.72336 17.917 2.82517 17.917L4.8284 17.917L7.28635 17.917L7.74107 17.917Z" fill="#3761E9"/>
<path d="M11.014 4.02486L10.7107 3.90352C9.56361 3.44469 8.30786 3.3294 7.09642 3.57169L5.8335 3.82427V11.164L7.09642 10.9114C8.30786 10.6691 9.56361 10.7844 10.7107 11.2432C11.9537 11.7404 13.3218 11.8333 14.6206 11.5086L14.6941 11.4902C15.1243 11.3827 15.3282 10.8901 15.1001 10.5099L13.9547 8.60078C13.704 8.18305 13.5787 7.97418 13.5489 7.74699C13.5366 7.65222 13.5366 7.55624 13.5489 7.46146C13.5787 7.23426 13.704 7.02539 13.9547 6.60764L14.8931 5.04363C15.1386 4.63428 14.7667 4.13233 14.3036 4.24812C13.2109 4.5213 12.0598 4.44319 11.014 4.02486Z" fill="#3761E9"/>
</svg>
