<svg width="20" height="20" viewBox="0 0 20 20" fill="none" xmlns="http://www.w3.org/2000/svg">
<path d="M2.81671 7.04167C3.69171 3.19167 7.05004 1.45833 10 1.45833C10 1.45833 10 1.45833 10.0084 1.45833C12.95 1.45833 16.3167 3.18333 17.1917 7.03333C18.1667 11.3333 15.5334 14.975 13.15 17.2667C12.2667 18.1167 11.1334 18.5417 10 18.5417C8.86671 18.5417 7.73338 18.1167 6.85838 17.2667C4.47504 14.975 1.84171 11.3417 2.81671 7.04167ZM10 11.2167C11.45 11.2167 12.625 10.0417 12.625 8.59167C12.625 7.14167 11.45 5.96667 10 5.96667C8.55004 5.96667 7.37504 7.14167 7.37504 8.59167C7.37504 10.0417 8.55004 11.2167 10 11.2167Z" fill="#3761E9"/>
</svg>
