<svg width="24" height="24" viewBox="0 0 24 24" fill="none" xmlns="http://www.w3.org/2000/svg">
<path d="M11.9625 0.459381C13.0219 0.459381 13.8844 1.32188 13.8844 2.38126C13.8844 3.44063 13.0219 4.30313 11.9625 4.30313C10.9031 4.30313 10.0406 3.44063 10.0406 2.38126C10.0406 1.32188 10.9031 0.459381 11.9625 0.459381ZM14.3813 4.80001H9.58128C8.25003 4.80001 7.18127 5.86876 7.18127 7.20001V13.0688C7.18127 13.5281 7.5469 13.9125 8.02502 13.9125C8.50315 13.9125 8.86877 13.5469 8.86877 13.0688V7.67813C8.86877 7.54688 8.98128 7.43438 9.11253 7.43438C9.24378 7.43438 9.35627 7.54688 9.35627 7.67813V22.2281C9.35627 22.95 9.89065 23.5406 10.5563 23.5406C11.2219 23.5406 11.7563 22.95 11.7563 22.2281V13.9313C11.7563 13.8 11.8688 13.6875 12 13.6875C12.1313 13.6875 12.2438 13.8 12.2438 13.9313V22.2281C12.2438 22.95 12.7781 23.5406 13.4438 23.5406C14.1094 23.5406 14.6438 22.95 14.6438 22.2281V7.67813C14.6438 7.54688 14.7563 7.43438 14.8875 7.43438C15.0188 7.43438 15.1313 7.54688 15.1313 7.67813V13.0781C15.1313 13.5375 15.4969 13.9219 15.975 13.9219C16.4531 13.9219 16.8188 13.5563 16.8188 13.0781V7.20001C16.7813 5.86876 15.6844 4.80001 14.3813 4.80001Z" fill="#64748B"/>
</svg>
