<svg width="16" height="16" viewBox="0 0 16 16" fill="none" xmlns="http://www.w3.org/2000/svg">
<path d="M12.0838 13.6471V12.0951H3.69837V13.6471H0.730841V9.53976C0.750135 8.75482 1.08284 8.05082 1.60755 7.54541L1.60849 7.54447L0.750606 7.40329C0.322841 7.33129 0.000488281 6.96376 0.000488281 6.52094C0.000488281 6.02729 0.400959 5.62682 0.894606 5.62682C0.945429 5.62682 0.995312 5.63106 1.04425 5.63906L1.03908 5.63812L2.51061 5.87812C2.53461 5.88282 2.55531 5.88847 2.57508 5.89506L2.57178 5.89412L3.51955 3.48188H6.54731L6.77319 2.35247H9.59672L9.82261 3.48188H12.6753L13.6235 5.896C13.6395 5.89035 13.6593 5.88471 13.68 5.88047L13.6838 5.88L15.1567 5.64C15.1995 5.63294 15.249 5.62871 15.2988 5.62871C15.7421 5.62871 16.1106 5.95059 16.1826 6.37365L16.1835 6.37882C16.1906 6.42165 16.1948 6.47106 16.1948 6.52141C16.1948 6.96423 15.8734 7.33176 15.4518 7.40423L15.4466 7.40518L14.2551 7.60047C14.7464 8.10165 15.0551 8.78353 15.0734 9.53694V9.54023V11.2847C15.0734 11.3454 15.0664 11.4042 15.0532 11.4607L15.0541 11.4555V13.6461L12.0838 13.6471ZM10.256 10.0626C10.257 10.3915 10.5233 10.6579 10.8518 10.6584H13.2457C13.5746 10.6584 13.8414 10.3915 13.8414 10.0626C13.8414 9.73365 13.5746 9.46682 13.2457 9.46682H10.8527C10.5243 9.46823 10.2579 9.73412 10.257 10.0626H10.256ZM1.90543 10.0626C1.9059 10.3915 2.17272 10.6579 2.50119 10.6584H4.89508C5.22402 10.6584 5.49084 10.3915 5.49084 10.0626C5.49084 9.73365 5.22402 9.46682 4.89508 9.46682H2.50166C2.17319 9.46776 1.90684 9.73365 1.9059 10.0621L1.90543 10.0626ZM3.30449 6.95294H12.8405C12.8565 6.95294 12.872 6.95576 12.8871 6.95576L11.9459 4.55294H4.2499L3.30449 6.95294Z" fill="#64748B"/>
</svg>
