<svg width="24" height="24" viewBox="0 0 24 24" fill="none" xmlns="http://www.w3.org/2000/svg">
<path d="M6.70667 12.6602C7.23402 12.8019 7.79272 12.5422 7.9548 12.0801L9.44857 7.812C9.45744 7.79389 9.50207 7.71893 9.60642 7.71893C9.61599 7.71893 9.81671 7.71893 9.81671 7.71893C9.87621 7.71816 9.91132 7.76233 9.89557 7.81237L6.90656 16.3887C6.89035 16.4387 6.90656 16.5261 7.01073 16.5261H9.07735C9.13685 16.5261 9.18013 16.5683 9.18013 16.6203C9.18013 16.6203 9.17971 22.4976 9.17971 22.5C9.17971 23.1238 9.75657 23.6296 10.4683 23.6296C11.18 23.6296 11.7569 23.1238 11.7569 22.5L11.7573 16.6203C11.7573 16.5681 11.8053 16.5261 11.8648 16.5261H11.8665H12.0726H12.0744C12.1339 16.5261 12.1818 16.5681 12.1818 16.6203L12.1823 22.5C12.1823 23.1238 12.7591 23.6296 13.4708 23.6296C14.1825 23.6296 14.7594 23.1238 14.7594 22.5C14.7594 22.4978 14.7589 16.6203 14.7589 16.6203C14.7589 16.5681 14.8025 16.5261 14.8618 16.5261H16.9892C17.0934 16.5261 17.1096 16.4387 17.0934 16.3887L14.1041 7.81257C14.0884 7.76254 14.1232 7.71836 14.1825 7.71914C14.1825 7.71914 14.3839 7.71914 14.3934 7.71914C14.4978 7.71914 14.5424 7.79409 14.5513 7.81221L16.045 12.0803C16.2071 12.5424 16.7658 12.8023 17.2932 12.6604C17.821 12.5185 18.1177 12.0285 17.9558 11.566C17.9558 11.566 17.0778 9.05591 16.4752 7.33334C16.4689 7.31233 16.4634 7.29421 16.4585 7.27944C16.2303 6.58394 15.7042 5 14.0188 5H9.86497C8.29462 5 7.76992 6.58394 7.54142 7.27944C7.53654 7.29421 6.04413 11.5658 6.04413 11.5658C5.88241 12.0283 6.17909 12.5185 6.70667 12.6602Z" fill="#64748B"/>
<path d="M12 4.5C13.1046 4.5 14 3.60457 14 2.5C14 1.39543 13.1046 0.5 12 0.5C10.8954 0.5 10 1.39543 10 2.5C10 3.60457 10.8954 4.5 12 4.5Z" fill="#64748B"/>
</svg>
