<svg preserveAspectRatio="none" width="100%" height="100%" overflow="visible" style="display: block;" viewBox="0 0 24 24" fill="none" xmlns="http://www.w3.org/2000/svg">
<g id="sun">
<path id="Vector" d="M12 8.5V3" stroke="#0F172A" stroke-width="1.5" stroke-linecap="round" stroke-linejoin="round"/>
<path id="Vector_2" d="M12 21V15.5" stroke="#0F172A" stroke-width="1.5" stroke-linecap="round" stroke-linejoin="round"/>
<path id="Vector_3" d="M10 3H14" stroke="#222222" stroke-width="1.5" stroke-linecap="round" stroke-linejoin="round"/>
<path id="Vector_4" d="M10 21H14" stroke="#222222" stroke-width="1.5" stroke-linecap="round" stroke-linejoin="round"/>
<path id="Vector_5" d="M8.97 10.25L4.21 7.5" stroke="#222222" stroke-width="1.5" stroke-linecap="round" stroke-linejoin="round"/>
<path id="Vector_6" d="M19.79 16.5L15.03 13.75" stroke="#222222" stroke-width="1.5" stroke-linecap="round" stroke-linejoin="round"/>
<path id="Vector_7" d="M3.21 9.23L5.21 5.77" stroke="#222222" stroke-width="1.5" stroke-linecap="round" stroke-linejoin="round"/>
<path id="Vector_8" d="M18.79 18.23L20.79 14.77" stroke="#222222" stroke-width="1.5" stroke-linecap="round" stroke-linejoin="round"/>
<path id="Vector_9" d="M15.5 12C15.5 12.64 15.33 13.23 15.03 13.75C14.42 14.8 13.29 15.5 12 15.5C10.71 15.5 9.58 14.8 8.97 13.75C8.67 13.23 8.5 12.64 8.5 12C8.5 11.36 8.67 10.77 8.97 10.25C9.58 9.2 10.71 8.5 12 8.5C13.29 8.5 14.42 9.2 15.03 10.25C15.33 10.77 15.5 11.36 15.5 12Z" stroke="#222222" stroke-width="1.5" stroke-linecap="round" stroke-linejoin="round"/>
<path id="Vector_10" d="M19.79 7.5L15.03 10.25" stroke="#222222" stroke-width="1.5" stroke-linecap="round" stroke-linejoin="round"/>
<path id="Vector_11" d="M8.97 13.75L4.21 16.5" stroke="#222222" stroke-width="1.5" stroke-linecap="round" stroke-linejoin="round"/>
<path id="Vector_12" d="M20.79 9.23L18.79 5.77" stroke="#222222" stroke-width="1.5" stroke-linecap="round" stroke-linejoin="round"/>
<path id="Vector_13" d="M5.21 18.23L3.21 14.77" stroke="#222222" stroke-width="1.5" stroke-linecap="round" stroke-linejoin="round"/>
<g id="Vector_14" opacity="0">
</g>
</g>
</svg>
