<svg preserveAspectRatio="none" width="100%" height="100%" overflow="visible" style="display: block;" viewBox="0 0 20 20" fill="none" xmlns="http://www.w3.org/2000/svg">
<g id="like">
<path id="Vector" d="M6.23333 15.2917L8.81667 17.2917C9.15 17.625 9.9 17.7917 10.4 17.7917H13.5667C14.5667 17.7917 15.65 17.0417 15.9 16.0417L17.9 9.95833C18.3167 8.79167 17.5667 7.79167 16.3167 7.79167H12.9833C12.4833 7.79167 12.0667 7.375 12.15 6.79167L12.5667 4.125C12.7333 3.375 12.2333 2.54167 11.4833 2.29167C10.8167 2.04167 9.98333 2.375 9.65 2.875L6.23333 7.95833" stroke="#3761E9" stroke-width="1.5" stroke-miterlimit="10"/>
<path id="Vector_2" d="M1.98333 15.2917V7.125C1.98333 5.95833 2.48333 5.54167 3.65 5.54167H4.48333C5.65 5.54167 6.15 5.95833 6.15 7.125V15.2917C6.15 16.4583 5.65 16.875 4.48333 16.875H3.65C2.48333 16.875 1.98333 16.4583 1.98333 15.2917Z" stroke="#3761E9" stroke-width="1.5" stroke-linecap="round" stroke-linejoin="round"/>
<g id="Vector_3" opacity="0">
</g>
</g>
</svg>
