<svg preserveAspectRatio="none" width="100%" height="100%" overflow="visible" style="display: block;" viewBox="0 0 24 24" fill="none" xmlns="http://www.w3.org/2000/svg">
<g id="routing">
<path id="Vector" d="M2.07 4.6C2.87 1.14 8.08 1.14 8.87 4.6C9.34 6.63 8.05 8.35 6.93 9.42C6.11 10.2 4.82 10.19 4 9.42C2.89 8.35 1.6 6.63 2.07 4.6Z" stroke="#FFFFFF" stroke-width="1.5"/>
<path id="Vector_2" d="M15.07 16.6C15.87 13.14 21.11 13.14 21.91 16.6C22.38 18.63 21.09 20.35 19.96 21.42C19.14 22.2 17.84 22.19 17.02 21.42C15.89 20.35 14.6 18.63 15.07 16.6Z" stroke="#FFFFFF" stroke-width="1.5"/>
<path id="Vector_3" d="M12 5H14.68C16.53 5 17.39 7.29 16 8.51L8.01 15.5C6.62 16.71 7.48 19 9.32 19H12" stroke="#FFFFFF" stroke-width="1.5" stroke-linecap="round" stroke-linejoin="round"/>
<path id="Vector_4" d="M5.48622 5.5H5.49777" stroke="#FFFFFF" stroke-width="1.5" stroke-linecap="round" stroke-linejoin="round"/>
<path id="Vector_5" d="M18.4862 17.5H18.4978" stroke="#FFFFFF" stroke-width="1.5" stroke-linecap="round" stroke-linejoin="round"/>
<g id="Vector_6" opacity="0">
</g>
</g>
</svg>
