<svg preserveAspectRatio="none" width="100%" height="100%" overflow="visible" style="display: block;" viewBox="0 0 20 20" fill="none" xmlns="http://www.w3.org/2000/svg">
<g id="Flag">
<path id="Vector" fill-rule="evenodd" clip-rule="evenodd" d="M5.83354 2.46747C5.83354 2.16345 5.58708 1.91699 5.28306 1.91699C4.97904 1.91699 4.73258 2.16345 4.73258 2.46747V17.1469C4.73258 17.4509 4.97904 17.6974 5.28306 17.6974C5.58708 17.6974 5.83354 17.4509 5.83354 17.1469V11.165V3.82532V2.46747Z" fill="#0F172A"/>
<path id="Vector_2" fill-rule="evenodd" clip-rule="evenodd" d="M7.74101 17.917C7.84282 17.917 7.92536 17.7198 7.92536 17.4766C7.92536 17.2334 7.84282 17.0362 7.74101 17.0362L2.82511 17.0362C2.7233 17.0362 2.64076 17.2334 2.64076 17.4766C2.64076 17.7198 2.7233 17.917 2.82511 17.917L4.82834 17.917L7.28629 17.917L7.74101 17.917Z" fill="#0F172A"/>
<path id="Vector_3" d="M11.0141 4.02486L10.7107 3.90352C9.56365 3.44469 8.3079 3.3294 7.09646 3.57169L5.83354 3.82427V11.164L7.09646 10.9114C8.3079 10.6691 9.56365 10.7844 10.7107 11.2432C11.9538 11.7404 13.3218 11.8333 14.6206 11.5086L14.6941 11.4902C15.1243 11.3827 15.3283 10.8901 15.1001 10.5099L13.9547 8.60078C13.7041 8.18306 13.5787 7.97418 13.549 7.74699C13.5366 7.65222 13.5366 7.55624 13.549 7.46146C13.5787 7.23427 13.7041 7.02539 13.9547 6.60765L14.8931 5.04363C15.1387 4.63428 14.7668 4.13233 14.3036 4.24812C13.2109 4.5213 12.0599 4.44319 11.0141 4.02486Z" fill="#0F172A"/>
</g>
</svg>
