<svg preserveAspectRatio="none" width="100%" height="100%" overflow="visible" style="display: block;" viewBox="0 0 32 49" fill="none" xmlns="http://www.w3.org/2000/svg">
<g id="ic_dest">
<path id="Path" d="M16 49C17.6569 49 19 47.6569 19 46C19 44.3431 17.6569 43 16 43C14.3431 43 13 44.3431 13 46C13 47.6569 14.3431 49 16 49Z" fill="black"/>
<path id="Path_2" fill-rule="evenodd" clip-rule="evenodd" d="M15.0104 31.9514H16.8704V43.8215H15.0104V31.9514Z" fill="black"/>
<g id="Group 1948753814">
<path id="Path_3" d="M16 32C24.8365 32 32 24.8367 32 16C32 7.16346 24.8365 0 16 0C7.16345 0 0 7.16346 0 16C0 24.8367 7.16345 32 16 32Z" fill="#5579EF"/>
<path id="Path_4" d="M16 20C18.209 20 20 18.209 20 16C20 13.7908 18.209 12 16 12C13.7908 12 12 13.7908 12 16C12 18.209 13.7908 20 16 20Z" fill="#F9FFFF"/>
</g>
</g>
</svg>
