<svg preserveAspectRatio="none" width="100%" height="100%" overflow="visible" style="display: block;" viewBox="0 0 24 24" fill="none" xmlns="http://www.w3.org/2000/svg">
<g id="home-hashtag">
<path id="Vector" d="M14.7371 14.84C14.7111 15.5363 14.1463 16.1011 13.45 16.1271V14.84H14.7371Z" fill="#94A3B8" stroke="#94A3B8" stroke-width="1.5"/>
<path id="Vector_2" d="M10.55 14.84V16.1271C9.85371 16.1011 9.28897 15.5363 9.26293 14.84H10.55Z" fill="#94A3B8" stroke="#94A3B8" stroke-width="1.5"/>
<path id="Vector_3" d="M8.51 12V12.7H11.3V9.91H10.6C9.45 9.91 8.51 10.85 8.51 12Z" fill="#94A3B8"/>
<path id="Vector_4" d="M20.03 6.82L14.28 2.79C12.71 1.69 10.31 1.75 8.8 2.92L3.79 6.83C2.78 7.61 2 9.21 2 10.47V17.37C2 19.92 4.07 22 6.61 22H17.38C19.92 22 21.99 19.93 21.99 17.38V10.6C22 9.25 21.13 7.59 20.03 6.82ZM16.88 14.79C16.88 16.71 15.31 18.28 13.39 18.28H10.6C8.68 18.28 7.11 16.72 7.11 14.79V12C7.11 10.08 8.68 8.51 10.6 8.51H13.39C15.31 8.51 16.88 10.07 16.88 12V14.79V14.79Z" fill="#94A3B8"/>
<path id="Vector_5" d="M13.4 9.91H12.7V12.7H15.49V12C15.49 10.85 14.55 9.91 13.4 9.91Z" fill="#94A3B8"/>
<g id="Vector_6" opacity="0">
</g>
</g>
</svg>
