<svg preserveAspectRatio="none" width="100%" height="100%" overflow="visible" style="display: block;" viewBox="0 0 24 24" fill="none" xmlns="http://www.w3.org/2000/svg">
<g id="ico / 24 / transport / taxi">
<g id="Icon color">
<mask id="path-1-inside-1_0_353" fill="white">
<path fill-rule="evenodd" clip-rule="evenodd" d="M9 4H15V2.5C15 2.22386 14.7761 2 14.5 2H9.5C9.22386 2 9 2.22386 9 2.5V4ZM21 13.56C21 13.1882 20.9495 12.8182 20.85 12.46L19.41 7.46C19.1685 6.59874 18.3845 6.00256 17.49 6H6.49C5.60575 6.01014 4.83313 6.59977 4.59 7.45L3.15 12.45C3.04958 12.8114 2.99911 13.1849 3 13.56V21C3 21.5523 3.44772 22 4 22H5C5.55228 22 6 21.5523 6 21V20H18V21C18 21.5523 18.4477 22 19 22H20C20.5523 22 21 21.5523 21 21V13.56ZM6.27 7.93C6.30111 7.82333 6.39889 7.75 6.51 7.75H17.51C17.6211 7.75 17.7189 7.82333 17.75 7.93L18.89 12H5.11L6.27 7.93ZM7 17C7.55228 17 8 16.5523 8 16V15C8 14.4477 7.55228 14 7 14H6C5.44772 14 5 14.4477 5 15V16C5 16.5523 5.44772 17 6 17H7ZM19 16C19 16.5523 18.5523 17 18 17H17C16.4477 17 16 16.5523 16 16V15C16 14.4477 16.4477 14 17 14H18C18.5523 14 19 14.4477 19 15V16Z"/>
</mask>
<path fill-rule="evenodd" clip-rule="evenodd" d="M9 4H15V2.5C15 2.22386 14.7761 2 14.5 2H9.5C9.22386 2 9 2.22386 9 2.5V4ZM21 13.56C21 13.1882 20.9495 12.8182 20.85 12.46L19.41 7.46C19.1685 6.59874 18.3845 6.00256 17.49 6H6.49C5.60575 6.01014 4.83313 6.59977 4.59 7.45L3.15 12.45C3.04958 12.8114 2.99911 13.1849 3 13.56V21C3 21.5523 3.44772 22 4 22H5C5.55228 22 6 21.5523 6 21V20H18V21C18 21.5523 18.4477 22 19 22H20C20.5523 22 21 21.5523 21 21V13.56ZM6.27 7.93C6.30111 7.82333 6.39889 7.75 6.51 7.75H17.51C17.6211 7.75 17.7189 7.82333 17.75 7.93L18.89 12H5.11L6.27 7.93ZM7 17C7.55228 17 8 16.5523 8 16V15C8 14.4477 7.55228 14 7 14H6C5.44772 14 5 14.4477 5 15V16C5 16.5523 5.44772 17 6 17H7ZM19 16C19 16.5523 18.5523 17 18 17H17C16.4477 17 16 16.5523 16 16V15C16 14.4477 16.4477 14 17 14H18C18.5523 14 19 14.4477 19 15V16Z" fill="#94A3B8"/>
<path d="M15 4V5.5H16.5V4H15ZM9 4H7.5V5.5H9V4ZM20.85 12.46L22.2953 12.0584L22.2914 12.0449L20.85 12.46ZM21 13.56H22.5V13.5599L21 13.56ZM19.41 7.46L17.9657 7.865L17.9686 7.87513L19.41 7.46ZM17.49 6L17.4943 4.5H17.49V6ZM6.49 6V4.5H6.4814L6.47281 4.5001L6.49 6ZM4.59 7.45L6.03141 7.86513L6.03219 7.8624L4.59 7.45ZM3.15 12.45L1.70852 12.0349L1.70475 12.0484L3.15 12.45ZM3 13.56H4.5L4.5 13.5564L3 13.56ZM6 20V18.5H4.5V20H6ZM18 20H19.5V18.5H18V20ZM6.27 7.93L4.82997 7.50999L4.82745 7.51885L6.27 7.93ZM17.75 7.93L19.1944 7.52542L19.1922 7.5177L19.19 7.51L17.75 7.93ZM18.89 12V13.5H20.8679L20.3344 11.5954L18.89 12ZM5.11 12L3.66745 11.5889L3.12275 13.5H5.11V12ZM15 4V2.5H9V4V5.5H15V4ZM15 2.5H13.5V4H15H16.5V2.5H15ZM14.5 2V3.5C13.9477 3.5 13.5 3.05229 13.5 2.5H15H16.5C16.5 1.39543 15.6046 0.5 14.5 0.5V2ZM9.5 2V3.5H14.5V2V0.5H9.5V2ZM9 2.5H10.5C10.5 3.05228 10.0523 3.5 9.5 3.5V2V0.5C8.39543 0.5 7.5 1.39543 7.5 2.5H9ZM9 4H10.5V2.5H9H7.5V4H9ZM20.85 12.46L19.4047 12.8615C19.4679 13.089 19.5 13.324 19.5 13.5601L21 13.56L22.5 13.5599C22.5 13.0525 22.4311 12.5474 22.2953 12.0585L20.85 12.46ZM19.41 7.46L17.9686 7.87513L19.4086 12.8751L20.85 12.46L22.2914 12.0449L20.8514 7.04487L19.41 7.46ZM17.49 6L17.4857 7.49999C17.7093 7.50063 17.9053 7.64968 17.9657 7.86499L19.41 7.46L20.8543 7.05501C20.4317 5.5478 19.0596 4.50449 17.4943 4.50001L17.49 6ZM6.49 6V7.5H17.49V6V4.5H6.49V6ZM4.59 7.45L6.03219 7.8624C6.09298 7.64984 6.28613 7.50244 6.50719 7.4999L6.49 6L6.47281 4.5001C4.92537 4.51784 3.57328 5.5497 3.14781 7.0376L4.59 7.45ZM3.15 12.45L4.59141 12.8651L6.03141 7.86513L4.59 7.45L3.14859 7.03487L1.70859 12.0349L3.15 12.45ZM3 13.56L4.5 13.5564C4.49943 13.3182 4.53148 13.0811 4.59525 12.8516L3.15 12.45L1.70475 12.0484C1.56768 12.5418 1.49879 13.0515 1.5 13.5636L3 13.56ZM3 21H4.5V13.56H3H1.5V21H3ZM4 22V20.5C4.27614 20.5 4.5 20.7239 4.5 21H3H1.5C1.5 22.3807 2.61929 23.5 4 23.5V22ZM5 22V20.5H4V22V23.5H5V22ZM6 21H4.5C4.5 20.7239 4.72386 20.5 5 20.5V22V23.5C6.38071 23.5 7.5 22.3807 7.5 21H6ZM6 20H4.5V21H6H7.5V20H6ZM18 20V18.5H6V20V21.5H18V20ZM18 21H19.5V20H18H16.5V21H18ZM19 22V20.5C19.2761 20.5 19.5 20.7239 19.5 21H18H16.5C16.5 22.3807 17.6193 23.5 19 23.5V22ZM20 22V20.5H19V22V23.5H20V22ZM21 21H19.5C19.5 20.7239 19.7239 20.5 20 20.5V22V23.5C21.3807 23.5 22.5 22.3807 22.5 21H21ZM21 13.56H19.5V21H21H22.5V13.56H21ZM6.51 7.75V6.25C5.73222 6.25 5.04778 6.76333 4.83 7.51L6.27 7.93L7.71 8.35C7.55444 8.88333 7.06555 9.25 6.51 9.25V7.75ZM17.51 7.75V6.25H6.51V7.75V9.25H17.51V7.75ZM17.75 7.93L19.19 7.51C18.9722 6.76333 18.2878 6.25 17.51 6.25V7.75V9.25C16.9544 9.25 16.4656 8.88334 16.31 8.35L17.75 7.93ZM18.89 12L20.3344 11.5954L19.1944 7.52542L17.75 7.93L16.3056 8.33458L17.4456 12.4046L18.89 12ZM5.11 12V13.5H18.89V12V10.5H5.11V12ZM6.27 7.93L4.82745 7.51885L3.66745 11.5889L5.11 12L6.55255 12.4111L7.71255 8.34115L6.27 7.93ZM8 16H6.5C6.5 15.7239 6.72386 15.5 7 15.5V17V18.5C8.38071 18.5 9.5 17.3807 9.5 16H8ZM8 15H6.5V16H8H9.5V15H8ZM7 14V15.5C6.72386 15.5 6.5 15.2761 6.5 15H8H9.5C9.5 13.6193 8.38071 12.5 7 12.5V14ZM6 14V15.5H7V14V12.5H6V14ZM5 15H6.5C6.5 15.2761 6.27614 15.5 6 15.5V14V12.5C4.61929 12.5 3.5 13.6193 3.5 15H5ZM5 16H6.5V15H5H3.5V16H5ZM6 17V15.5C6.27614 15.5 6.5 15.7239 6.5 16H5H3.5C3.5 17.3807 4.61929 18.5 6 18.5V17ZM7 17V15.5H6V17V18.5H7V17ZM18 17V18.5C19.3807 18.5 20.5 17.3807 20.5 16H19H17.5C17.5 15.7239 17.7239 15.5 18 15.5V17ZM17 17V18.5H18V17V15.5H17V17ZM16 16H14.5C14.5 17.3807 15.6193 18.5 17 18.5V17V15.5C17.2761 15.5 17.5 15.7239 17.5 16H16ZM16 15H14.5V16H16H17.5V15H16ZM17 14V12.5C15.6193 12.5 14.5 13.6193 14.5 15H16H17.5C17.5 15.2761 17.2761 15.5 17 15.5V14ZM18 14V12.5H17V14V15.5H18V14ZM19 15H20.5C20.5 13.6193 19.3807 12.5 18 12.5V14V15.5C17.7239 15.5 17.5 15.2761 17.5 15H19ZM19 16H20.5V15H19H17.5V16H19Z" fill="#94A3B8" mask="url(#path-1-inside-1_0_353)"/>
</g>
</g>
</svg>
