<svg preserveAspectRatio="none" width="100%" height="100%" overflow="visible" style="display: block;" viewBox="0 0 24 24" fill="none" xmlns="http://www.w3.org/2000/svg">
<g id="Close">
<path id="Vector" d="M18.4502 5.18728C18.4979 5.18675 18.5457 5.19562 18.5898 5.21364C18.6339 5.23167 18.6734 5.25907 18.707 5.29274C18.7406 5.32643 18.7682 5.36585 18.7861 5.40993C18.8041 5.45412 18.8121 5.50189 18.8115 5.54958C18.8109 5.59728 18.8013 5.64452 18.7822 5.68825C18.7632 5.73194 18.7357 5.77159 18.7012 5.80446L18.6943 5.8113L12.7812 11.7254L12.5049 12.0017L18.6855 18.1824C18.7454 18.2498 18.7783 18.3372 18.7764 18.4275C18.7743 18.5197 18.7361 18.6075 18.6709 18.6726C18.6057 18.7377 18.5179 18.7751 18.4258 18.7771C18.3569 18.7786 18.2894 18.7608 18.2314 18.7254L18.1767 18.6834L12 12.5066L11.7236 12.783L5.80955 18.6941L5.80272 18.7009C5.76983 18.7353 5.73011 18.7631 5.68651 18.782C5.64288 18.8009 5.59537 18.8108 5.54784 18.8113C5.50034 18.8118 5.45315 18.8029 5.40916 18.7849C5.365 18.7669 5.32471 18.7396 5.291 18.7058C5.25742 18.6721 5.23079 18.6317 5.21287 18.5877C5.19503 18.5436 5.18593 18.4965 5.18651 18.449C5.1871 18.4013 5.19773 18.3541 5.21678 18.3103C5.23583 18.2667 5.26337 18.227 5.29784 18.1941L11.4922 11.9998L11.2158 11.7234L5.31737 5.82302C5.25537 5.75512 5.22164 5.66592 5.22362 5.57399C5.22566 5.48185 5.26391 5.39405 5.32909 5.32888C5.39425 5.26377 5.48211 5.22643 5.5742 5.22439C5.64309 5.22294 5.71056 5.24069 5.76854 5.27614L5.82323 5.31814L12 11.4949L18.2099 5.28493C18.2399 5.25681 18.2737 5.23298 18.3115 5.21657C18.3553 5.19758 18.4025 5.1878 18.4502 5.18728Z" fill="black" stroke="#E11D48" stroke-width="0.78125"/>
</g>
</svg>
