<svg preserveAspectRatio="none" width="100%" height="100%" overflow="visible" style="display: block;" viewBox="0 0 24 24" fill="none" xmlns="http://www.w3.org/2000/svg">
<g id="driving">
<g id="Group">
<path id="Vector" d="M14.55 2H9.45C7.65 2 7.25 2.90001 7.02 4.01001L6.2 7.92999H17.8L16.98 4.01001C16.75 2.90001 16.35 2 14.55 2Z" stroke="white" stroke-width="1.5" stroke-linecap="round" stroke-linejoin="round"/>
<g id="Group_2">
<path id="Vector_2" d="M19.24 14.32C19.32 15.17 18.64 15.9 17.77 15.9H16.41C15.63 15.9 15.52 15.57 15.38 15.15L15.23 14.72C15.03 14.13 14.9 13.73 13.85 13.73H10.14C9.09999 13.73 8.93999 14.18 8.75999 14.72L8.60999 15.15C8.46999 15.56 8.35999 15.9 7.57999 15.9H6.21999C5.34999 15.9 4.66999 15.17 4.74999 14.32L5.16 9.90002C5.26 8.81002 5.46999 7.91998 7.36999 7.91998H16.62C18.52 7.91998 18.73 8.81002 18.83 9.90002L19.24 14.32Z" stroke="white" stroke-width="1.5" stroke-linecap="round" stroke-linejoin="round"/>
</g>
<path id="Vector_3" d="M6.2 5.75H5.47" stroke="white" stroke-width="1.5" stroke-linecap="round" stroke-linejoin="round"/>
<path id="Vector_4" d="M18.53 5.75H17.8" stroke="white" stroke-width="1.5" stroke-linecap="round" stroke-linejoin="round"/>
<path id="Vector_5" d="M7.64999 10.83H9.82001" stroke="white" stroke-width="1.5" stroke-linecap="round" stroke-linejoin="round"/>
<path id="Vector_6" d="M14.18 10.83H16.35" stroke="white" stroke-width="1.5" stroke-linecap="round" stroke-linejoin="round"/>
</g>
<path id="Vector_7" d="M12 17V18" stroke="white" stroke-width="1.5" stroke-linecap="round" stroke-linejoin="round"/>
<path id="Vector_8" d="M12 21V22" stroke="white" stroke-width="1.5" stroke-linecap="round" stroke-linejoin="round"/>
<path id="Vector_9" d="M3 18L2 22" stroke="white" stroke-width="1.5" stroke-linecap="round" stroke-linejoin="round"/>
<path id="Vector_10" d="M21 18L22 22" stroke="white" stroke-width="1.5" stroke-linecap="round" stroke-linejoin="round"/>
<g id="Vector_11" opacity="0">
</g>
</g>
</svg>
