<svg preserveAspectRatio="none" width="100%" height="100%" overflow="visible" style="display: block;" viewBox="0 0 24 24" fill="none" xmlns="http://www.w3.org/2000/svg">
<g id="document-normal">
<path id="Vector" d="M10 6H14C16 6 16 5 16 4C16 2 15 2 14 2H10C9 2 8 2 8 4C8 6 9 6 10 6Z" stroke="#0F172A" stroke-width="1.5" stroke-miterlimit="10" stroke-linecap="round" stroke-linejoin="round"/>
<path id="Vector_2" d="M16 4.02C19.33 4.2 21 5.43 21 10V16C21 20 20 22 15 22H9C4 22 3 20 3 16V10C3 5.44 4.67 4.2 8 4.02" stroke="#0F172A" stroke-width="1.5" stroke-miterlimit="10" stroke-linecap="round" stroke-linejoin="round"/>
<path id="Vector_3" opacity="0" d="M23.5 0.5V23.5H0.5V0.5H23.5Z" stroke="#0F172A"/>
</g>
</svg>
