<svg preserveAspectRatio="none" width="100%" height="100%" overflow="visible" style="display: block;" viewBox="0 0 69 22" fill="none" xmlns="http://www.w3.org/2000/svg">
<g id="Payme_logo">
<path id="Vector" d="M7.16127 0.00162634H60.7772C61.3948 0.00162634 61.9398 0.263411 62.2488 0.76747L67.6836 9.82749C68.1014 10.5373 68.0296 11.3958 67.4289 12.1063L59.7774 21.1664C59.3595 21.6518 58.8146 21.9509 58.1952 21.9509H4.74091C3.66915 21.9509 2.88688 21.0916 3.01343 20.0079L5.03277 1.94306C5.16091 0.841454 6.08714 0 7.15969 0H7.16048L7.16127 0.00162634Z" fill="#64748B"/>
<path id="Vector_2" d="M34.788 6.12102L32.0054 12.6315L30.5595 6.12102H27.7033L30.2479 15.5477L28.7656 18.6338H31.5846L37.5707 6.12102H34.7872H34.788ZM7.84131 18.6338H10.4041L10.8249 15.0786C11.2275 15.3981 11.9781 15.7558 12.9296 15.7558C15.8958 15.7558 17.7079 13.0648 17.7079 10.1307C17.7079 7.6283 16.5546 5.87875 14.3945 5.87875C13.3686 5.87875 12.4353 6.21695 11.7218 6.82017L11.8128 6.12428H9.32359L7.84131 18.6371V18.6347V18.6338ZM11.0448 13.2331L11.6127 8.60473C12.1616 8.1535 12.7841 7.9649 13.333 7.9836C14.4309 8.00147 15.0352 8.90554 15.0352 10.3169C15.0352 12.1421 14.1019 13.7038 12.527 13.7038C12.0327 13.7038 11.4656 13.5347 11.0448 13.2331ZM18.2022 12.9892C18.1832 14.5128 19.3926 15.7558 21.2403 15.7558C22.5407 15.7558 23.4914 15.1916 24.0403 14.5705L23.9304 15.5298H26.4196L27.0239 10.4315C27.3173 7.9104 26.5113 5.85922 23.3625 5.85922C22.0811 5.85922 20.5253 6.16085 19.6829 6.72506L19.4258 8.83234C20.1037 8.45513 21.4215 7.99661 22.6293 7.99661C24.0752 7.99661 24.5885 8.73806 24.5331 9.5291H22.9955C20.7618 9.5291 18.2173 10.4128 18.1991 12.9908H18.2014L18.2022 12.9892ZM20.784 12.7811C20.784 11.7648 21.9372 11.3884 23.126 11.3884H24.3338L24.1503 12.912C23.6377 13.3258 22.7226 13.7583 21.953 13.7583C21.2577 13.7583 20.7815 13.3632 20.7815 12.7795H20.7823L20.784 12.7811ZM52.2114 11.2193C52.1753 13.5713 53.8409 15.7534 57.2453 15.7534C58.4529 15.7534 59.479 15.5087 60.3932 14.925L60.5769 12.7047C59.8268 13.1754 58.691 13.4949 57.7032 13.4949C56.4029 13.4949 55.2314 12.9112 54.9031 11.5567H61.2374C61.3283 11.312 61.4019 10.7283 61.4019 10.164C61.4019 7.68114 60.065 5.87384 57.3188 5.87384C54.5727 5.87384 52.248 7.54864 52.2114 11.2169V11.2185V11.2193ZM54.9205 9.95837C55.1774 8.71689 56.0546 7.98195 57.1351 7.98195C58.2156 7.98195 58.8012 8.60308 58.8012 9.60064C58.8012 9.71362 58.8012 9.84535 58.7838 9.95837H54.9214H54.9205ZM39.6572 15.5282L40.4996 8.64213C41.0675 8.247 41.7074 7.9275 42.2579 7.9275C42.9714 7.9275 43.3194 8.47383 43.2103 9.41364L42.4778 15.529H45.0596L45.8656 8.84944L45.883 8.66083C46.4509 8.2657 47.1097 7.9275 47.6588 7.9275C48.3723 7.9275 48.7201 8.47383 48.6108 9.41364L47.8786 15.529H50.4602L51.2665 8.84944C51.4863 6.98686 50.5521 5.8584 48.8869 5.8584C47.7337 5.8584 46.507 6.53563 45.6836 7.15677C45.3356 6.32833 44.5668 5.8584 43.4863 5.8584C42.4058 5.8584 41.3626 6.40473 40.5391 6.96899L40.6491 6.12263H38.2335L37.0802 15.5307H39.662H39.6588L39.6572 15.5282Z" fill="white"/>
</g>
</svg>
