<svg preserveAspectRatio="none" width="100%" height="100%" overflow="visible" style="display: block;" viewBox="0 0 24 24" fill="none" xmlns="http://www.w3.org/2000/svg">
<g id="ico / 24 / transport / taxi">
<path id="Icon color" fill-rule="evenodd" clip-rule="evenodd" d="M9 4H15V2.5C15 2.22386 14.7761 2 14.5 2H9.5C9.22386 2 9 2.22386 9 2.5V4ZM21 13.56C21 13.1882 20.9495 12.8182 20.85 12.46L19.41 7.46C19.1685 6.59874 18.3845 6.00256 17.49 6H6.49C5.60575 6.01014 4.83313 6.59977 4.59 7.45L3.15 12.45C3.04958 12.8114 2.99911 13.1849 3 13.56V21C3 21.5523 3.44772 22 4 22H5C5.55228 22 6 21.5523 6 21V20H18V21C18 21.5523 18.4477 22 19 22H20C20.5523 22 21 21.5523 21 21V13.56ZM6.27 7.93C6.30111 7.82333 6.39889 7.75 6.51 7.75H17.51C17.6211 7.75 17.7189 7.82333 17.75 7.93L18.89 12H5.11L6.27 7.93ZM7 17C7.55228 17 8 16.5523 8 16V15C8 14.4477 7.55228 14 7 14H6C5.44772 14 5 14.4477 5 15V16C5 16.5523 5.44772 17 6 17H7ZM19 16C19 16.5523 18.5523 17 18 17H17C16.4477 17 16 16.5523 16 16V15C16 14.4477 16.4477 14 17 14H18C18.5523 14 19 14.4477 19 15V16Z" fill="#94A3B8"/>
</g>
</svg>
